<svg version="1.0" xmlns="http://www.w3.org/2000/svg"
 width="320.000000pt" height="320.000000pt" viewBox="0 0 320.000000 320.000000"
 preserveAspectRatio="xMidYMid meet">

<g transform="translate(0.000000,320.000000) scale(0.100000,-0.100000)"
fill="#000000" stroke="none">
<path d="M0 1600 l0 -1600 1600 0 1600 0 0 1600 0 1600 -1600 0 -1600 0 0
-1600z m865 1405 c29 -25 164 -148 299 -274 199 -186 252 -230 278 -234 32 -4
32 -4 -5 -5 -42 -2 -65 11 -152 83 -42 35 -82 59 -93 55 -13 -4 -75 45 -161
130 -57 56 -105 99 -107 97 -2 -2 14 -55 36 -117 22 -62 39 -115 36 -117 -4
-5 -52 110 -87 210 -15 43 -33 74 -48 83 l-23 16 6 -49 c3 -26 8 -86 11 -133
4 -47 13 -137 21 -200 23 -179 26 -302 10 -341 -14 -33 -14 -33 -21 46 -4 44
-13 143 -21 220 -8 77 -18 230 -21 340 -4 159 -9 204 -21 218 -31 35 11 17 63
-28z m1239 -412 c-45 -83 -84 -141 -84 -128 0 17 27 111 36 128 7 13 70 63 82
66 2 1 -13 -29 -34 -66z m-29 40 c-40 -22 -322 -124 -360 -130 -58 -10 -11 17
111 63 178 68 321 106 249 67z m-565 -65 c29 -27 49 -48 45 -48 -24 0 -89 51
-107 84 -15 27 2 17 62 -36z m140 -30 c15 -21 17 -28 6 -19 -16 13 -41 51 -33
51 2 0 14 -15 27 -32z m-1150 -129 c62 -33 142 -79 179 -101 36 -23 85 -52
109 -65 23 -14 42 -26 42 -27 0 -2 -33 -2 -74 -1 -71 1 -77 3 -130 43 -30 23
-60 51 -66 61 -13 25 -65 51 -103 51 -33 0 -103 -30 -90 -39 14 -10 34 -78 27
-94 -3 -10 4 -26 18 -40 36 -36 109 -155 129 -210 10 -27 26 -61 36 -75 43
-63 50 -98 36 -175 -7 -40 -12 -127 -13 -194 0 -88 -3 -122 -12 -126 -10 -3
-12 -36 -10 -133 1 -71 5 -142 8 -159 8 -50 -12 -8 -32 65 -26 98 -23 323 6
455 37 169 39 156 -31 290 -89 173 -133 232 -180 247 -22 6 -39 13 -39 15 0 2
9 13 20 25 35 38 19 86 -39 115 -48 24 -44 33 16 33 28 0 46 5 49 14 3 8 14
16 25 19 20 5 26 32 9 42 -9 6 -14 25 -7 25 2 0 54 -27 117 -61z m1660 -5
c-57 -18 -99 -22 -100 -9 -1 11 53 22 110 23 l35 0 -45 -14z m-631 1 c-3 -2
-54 -11 -115 -20 -60 -8 -149 -27 -199 -41 -131 -37 -134 -38 -105 -20 38 23
143 57 223 71 70 13 205 20 196 10z m1474 -91 c43 -4 77 -10 76 -13 -1 -6
-180 -161 -443 -381 -89 -74 -180 -154 -203 -178 -50 -51 -55 -44 -15 19 34
51 96 109 251 234 279 224 269 215 242 210 -20 -4 -21 -2 -9 13 21 27 42 41
60 42 9 0 20 4 23 10 16 26 -116 -16 -340 -108 -93 -38 -183 -72 -200 -75 -47
-10 85 49 225 100 69 25 127 48 130 50 3 3 -25 2 -63 -2 -55 -6 -66 -5 -62 6
4 12 -20 13 -150 6 -128 -6 -161 -5 -191 8 -20 8 -60 16 -88 16 -65 2 -110 11
-110 24 -1 15 730 30 867 19z m-2374 -84 c34 -24 125 -129 118 -136 -3 -3 -24
14 -48 38 -106 105 -135 145 -70 98z m447 -11 c-8 -11 -25 -28 -38 -36 -15
-11 -11 -4 11 20 39 41 49 47 27 16z m-126 8 c0 -1 -26 -27 -57 -57 l-58 -55
55 58 c50 53 60 62 60 54z m185 -153 c14 -15 34 -51 45 -81 11 -31 27 -65 35
-77 8 -11 15 -26 15 -33 0 -24 -40 10 -52 45 -10 27 -14 30 -19 15 -7 -17 -8
-17 -8 0 -1 9 -5 17 -11 17 -14 0 -13 -12 10 -63 11 -25 25 -81 31 -125 7 -46
19 -89 30 -103 l18 -24 -5 25 c-2 14 4 3 15 -25 10 -27 17 -53 15 -56 -2 -3
11 -3 29 -1 27 4 30 2 19 -9 -17 -19 -108 -15 -158 6 -49 20 -90 59 -116 109
-18 36 -19 45 -8 95 7 30 21 74 31 98 10 24 16 49 13 57 -3 9 1 13 13 13 15
-2 18 5 17 36 -2 46 12 48 24 5 l9 -33 7 32 c7 33 -8 63 -32 63 -12 0 -23 26
-15 34 12 11 24 6 48 -20z m-105 12 c0 -2 -8 -10 -17 -17 -16 -13 -17 -12 -4
4 13 16 21 21 21 13z m1355 -399 c6 -46 10 -55 21 -46 7 6 18 8 23 5 5 -4 79
-13 163 -21 195 -19 339 -36 358 -42 9 -3 -4 -11 -30 -17 l-45 -12 46 -27 c25
-15 60 -30 77 -33 41 -8 40 -17 -3 -33 -45 -16 -85 -58 -86 -91 -2 -23 -2 -24
-6 -2 -2 12 -11 22 -18 22 -8 0 -12 -6 -9 -14 4 -11 -5 -17 -33 -22 -21 -4
-103 -35 -183 -69 -152 -65 -278 -110 -286 -103 -2 3 28 20 68 38 40 18 93 42
118 55 43 21 263 118 306 135 12 5 32 23 45 41 12 18 18 29 11 25 -7 -4 -12
-2 -12 6 0 21 -61 63 -110 77 -25 6 -85 16 -135 21 -49 6 -121 15 -160 21 -38
6 -77 12 -85 13 -39 5 -47 21 -53 96 -7 86 7 69 18 -23z m-355 64 c5 -11 6
-22 1 -25 -4 -3 -11 -34 -14 -68 -9 -90 -11 -102 -20 -113 -5 -5 -17 -24 -27
-42 -11 -18 -43 -46 -72 -63 -49 -29 -58 -31 -123 -26 -38 3 -81 8 -95 12 -14
4 -44 9 -67 11 -24 3 -43 7 -43 9 0 9 53 54 63 54 6 0 24 12 39 27 l28 27 1
-25 c0 -13 3 -19 5 -12 3 7 12 9 20 6 9 -3 19 6 27 26 7 17 16 28 20 25 4 -4
19 7 34 24 16 16 53 45 83 63 65 38 110 78 110 96 0 19 18 16 30 -6z m-1185
-91 c8 -27 23 -25 28 3 2 12 5 4 6 -18 2 -82 132 -215 281 -290 135 -68 360
-125 499 -127 69 -1 95 3 102 13 6 10 9 10 9 2 0 -18 51 -16 102 3 42 16 81
49 90 76 4 11 8 10 21 -1 13 -10 15 -17 6 -27 -14 -17 2 -18 21 -1 7 6 -28
-34 -80 -90 -51 -56 -105 -110 -119 -121 -161 -118 -398 -118 -641 1 -69 33
-102 58 -176 132 -81 80 -93 97 -112 155 -11 36 -26 98 -33 138 -7 40 -18 77
-26 83 -14 12 -17 47 -7 73 8 22 21 20 29 -4z m1572 -132 c-3 -8 -6 -5 -6 6
-1 11 2 17 5 13 3 -3 4 -12 1 -19z m-1933 -553 c10 -97 18 -127 44 -175 14
-25 29 -53 34 -62 4 -10 13 -27 18 -38 17 -33 -5 -23 -45 21 -53 58 -77 120
-78 193 0 55 11 132 18 124 1 -2 5 -30 9 -63z m1632 -331 c4 -14 4 -61 2 -104
-4 -62 -11 -92 -37 -144 -36 -74 -118 -169 -165 -192 l-31 -15 25 23 c46 42
82 98 85 130 2 22 8 33 18 33 24 0 35 15 57 79 13 40 20 85 20 138 0 77 13
104 26 52z m-1018 -103 c13 -7 22 -15 19 -17 -6 -6 -93 37 -122 60 -19 15 51
-14 103 -43z m455 -89 c55 -37 95 -92 116 -159 12 -37 33 -80 48 -95 33 -34
26 -46 -11 -17 -15 12 -49 65 -76 119 -56 111 -96 157 -143 163 l-32 4 35 1
c20 1 47 -6 63 -16z m200 -54 c-11 -13 -32 -43 -46 -68 -29 -49 -38 -30 -11
23 22 43 44 67 62 67 12 0 11 -5 -5 -22z"/>
<path d="M345 2220 c-3 -5 1 -10 10 -10 9 0 13 5 10 10 -3 6 -8 10 -10 10 -2
0 -7 -4 -10 -10z"/>
<path d="M1150 1820 c4 -22 11 -44 15 -48 10 -9 -4 71 -15 81 -4 5 -4 -10 0
-33z"/>
<path d="M1213 1607 c0 -8 6 -14 14 -14 9 0 10 4 2 14 -6 7 -12 13 -14 13 -1
0 -2 -6 -2 -13z"/>
<path d="M1980 1694 c0 -5 -29 -42 -65 -81 -49 -54 -65 -79 -68 -106 -2 -20
-12 -45 -21 -56 -18 -19 -17 -19 30 -5 57 17 56 16 88 77 18 32 24 56 20 76
-4 17 1 41 11 61 9 17 14 34 11 38 -3 3 -6 1 -6 -4z"/>
</g>
</svg>
