<svg id="visual" viewBox="0 0 960 540" width="960" height="540" xmlns="http://www.w3.org/2000/svg" xmlns:xlink="http://www.w3.org/1999/xlink" version="1.1"><path d="M0 60L14.5 64.5C29 69 58 78 87.2 84.3C116.3 90.7 145.7 94.3 174.8 89.8C204 85.3 233 72.7 262 72.7C291 72.7 320 85.3 349 87.2C378 89 407 80 436.2 75.5C465.3 71 494.7 71 523.8 65.7C553 60.3 582 49.7 611 45.2C640 40.7 669 42.3 698 54C727 65.7 756 87.3 785.2 86.5C814.3 85.7 843.7 62.3 872.8 53.3C902 44.3 931 49.7 945.5 52.3L960 55L960 0L945.5 0C931 0 902 0 872.8 0C843.7 0 814.3 0 785.2 0C756 0 727 0 698 0C669 0 640 0 611 0C582 0 553 0 523.8 0C494.7 0 465.3 0 436.2 0C407 0 378 0 349 0C320 0 291 0 262 0C233 0 204 0 174.8 0C145.7 0 116.3 0 87.2 0C58 0 29 0 14.5 0L0 0Z" fill="#0066ff"></path><path d="M0 195L14.5 197.8C29 200.7 58 206.3 87.2 201C116.3 195.7 145.7 179.3 174.8 176.5C204 173.7 233 184.3 262 197C291 209.7 320 224.3 349 217.2C378 210 407 181 436.2 164.7C465.3 148.3 494.7 144.7 523.8 146.5C553 148.3 582 155.7 611 149.5C640 143.3 669 123.7 698 131.8C727 140 756 176 785.2 180.5C814.3 185 843.7 158 872.8 143.5C902 129 931 127 945.5 126L960 125L960 53L945.5 50.3C931 47.7 902 42.3 872.8 51.3C843.7 60.3 814.3 83.7 785.2 84.5C756 85.3 727 63.7 698 52C669 40.3 640 38.7 611 43.2C582 47.7 553 58.3 523.8 63.7C494.7 69 465.3 69 436.2 73.5C407 78 378 87 349 85.2C320 83.3 291 70.7 262 70.7C233 70.7 204 83.3 174.8 87.8C145.7 92.3 116.3 88.7 87.2 82.3C58 76 29 67 14.5 62.5L0 58Z" fill="#0b53e4"></path><path d="M0 384L14.5 377.8C29 371.7 58 359.3 87.2 348.7C116.3 338 145.7 329 174.8 317.2C204 305.3 233 290.7 262 305C291 319.3 320 362.7 349 357.3C378 352 407 298 436.2 281.8C465.3 265.7 494.7 287.3 523.8 289.2C553 291 582 273 611 287.3C640 301.7 669 348.3 698 363.7C727 379 756 363 785.2 355C814.3 347 843.7 347 872.8 335.2C902 323.3 931 299.7 945.5 287.8L960 276L960 123L945.5 124C931 125 902 127 872.8 141.5C843.7 156 814.3 183 785.2 178.5C756 174 727 138 698 129.8C669 121.7 640 141.3 611 147.5C582 153.7 553 146.3 523.8 144.5C494.7 142.7 465.3 146.3 436.2 162.7C407 179 378 208 349 215.2C320 222.3 291 207.7 262 195C233 182.3 204 171.7 174.8 174.5C145.7 177.3 116.3 193.7 87.2 199C58 204.3 29 198.7 14.5 195.8L0 193Z" fill="#0c40ca"></path><path d="M0 471L14.5 465.5C29 460 58 449 87.2 439C116.3 429 145.7 420 174.8 403.8C204 387.7 233 364.3 262 368.8C291 373.3 320 405.7 349 402.2C378 398.7 407 359.3 436.2 345C465.3 330.7 494.7 341.3 523.8 338.5C553 335.7 582 319.3 611 332C640 344.7 669 386.3 698 405.3C727 424.3 756 420.7 785.2 417.8C814.3 415 843.7 413 872.8 404.8C902 396.7 931 382.3 945.5 375.2L960 368L960 274L945.5 285.8C931 297.7 902 321.3 872.8 333.2C843.7 345 814.3 345 785.2 353C756 361 727 377 698 361.7C669 346.3 640 299.7 611 285.3C582 271 553 289 523.8 287.2C494.7 285.3 465.3 263.7 436.2 279.8C407 296 378 350 349 355.3C320 360.7 291 317.3 262 303C233 288.7 204 303.3 174.8 315.2C145.7 327 116.3 336 87.2 346.7C58 357.3 29 369.7 14.5 375.8L0 382Z" fill="#082eb1"></path><path d="M0 541L14.5 541C29 541 58 541 87.2 541C116.3 541 145.7 541 174.8 541C204 541 233 541 262 541C291 541 320 541 349 541C378 541 407 541 436.2 541C465.3 541 494.7 541 523.8 541C553 541 582 541 611 541C640 541 669 541 698 541C727 541 756 541 785.2 541C814.3 541 843.7 541 872.8 541C902 541 931 541 945.5 541L960 541L960 366L945.5 373.2C931 380.3 902 394.7 872.8 402.8C843.7 411 814.3 413 785.2 415.8C756 418.7 727 422.3 698 403.3C669 384.3 640 342.7 611 330C582 317.3 553 333.7 523.8 336.5C494.7 339.3 465.3 328.7 436.2 343C407 357.3 378 396.7 349 400.2C320 403.7 291 371.3 262 366.8C233 362.3 204 385.7 174.8 401.8C145.7 418 116.3 427 87.2 437C58 447 29 458 14.5 463.5L0 469Z" fill="#001b98"></path></svg>